<?xml version="1.0" encoding="utf-8"?>
<!-- Generator: Adobe Illustrator 22.0.1, SVG Export Plug-In . SVG Version: 6.00 Build 0)  -->
<svg version="1.1" id="Layer_1" xmlns="http://www.w3.org/2000/svg" xmlns:xlink="http://www.w3.org/1999/xlink" x="0px" y="0px"
	 viewBox="0 0 256 256" style="enable-background:new 0 0 256 256;" xml:space="preserve">
<style type="text/css">
	.st0{fill:#3C2415;}
	.st1{fill:#FFDEAD;stroke:#000000;stroke-miterlimit:10;}
</style>
<rect x="119.1" class="st0" width="17.9" height="256"/>
<rect x="119.1" y="-105" transform="matrix(-1.836970e-16 1 -1 -1.836970e-16 150.9716 -105.0284)" class="st0" width="17.9" height="256"/>
<path class="st1" d="M256,14l-17.2,240.3L128,199.5c0,0-110.8,54.9-110.8,54.9L0,14c0,0,25,0,25,0c1.4,3.1,12.7,27.1,38.4,33
	c24.3,5.5,51.3-7.6,64.6-33c13.3,25.3,40.3,38.5,64.6,33c25.6-5.8,37-29.9,38.4-33C231,14,256,14,256,14z"/>
</svg>
